<?xml version="1.0" encoding="utf-8"?>
<!-- Generator: Adobe Illustrator 27.7.0, SVG Export Plug-In . SVG Version: 6.00 Build 0)  -->
<svg version="1.1" id="Calque_1" xmlns="http://www.w3.org/2000/svg" xmlns:xlink="http://www.w3.org/1999/xlink" x="0px" y="0px"
	 viewBox="0 0 354.3 141.7" style="enable-background:new 0 0 354.3 141.7;" xml:space="preserve">
<style type="text/css">
	.st0{fill:#AC182E;}
	.st1{fill:#1D2769;}
</style>
<g>
	<path class="st0" d="M109.6,37.1c0,0,3.4,3.3,7.8,3.3c2.4,0,4.5-1.2,4.5-3.8c0-5.6-14.7-4.6-14.7-14.2c0-5.2,4.5-9.1,10.5-9.1
		c6.2,0,9.3,3.3,9.3,3.3l-2.5,4.6c0,0-3-2.7-6.9-2.7c-2.6,0-4.7,1.5-4.7,3.7c0,5.5,14.7,4.2,14.7,14.2c0,5-3.8,9.2-10.3,9.2
		c-7,0-10.8-4.3-10.8-4.3L109.6,37.1z"/>
	<path class="st0" d="M152.2,37.1h-11l-2.6,8h-5.9l11-31.2h5.9l11,31.2h-5.9L152.2,37.1z M146.7,19.3c0,0-0.7,3.1-1.3,4.8l-2.8,8.4
		h8.2l-2.8-8.4C147.5,22.3,146.8,19.3,146.7,19.3L146.7,19.3z"/>
	<path class="st0" d="M168.2,13.8h5.7l11.8,18c1.2,1.8,2.6,4.8,2.6,4.8h0.1c0,0-0.3-3-0.3-4.8v-18h5.6v31.2h-5.6l-11.8-18
		c-1.2-1.8-2.6-4.8-2.6-4.8h-0.1c0,0,0.3,3,0.3,4.8v18h-5.7V13.8z"/>
	<path class="st0" d="M211.5,18.7h-10.3v-4.9h26.2v4.9h-10.3v26.4h-5.7V18.7z"/>
	<path class="st0" d="M235,13.8h18.7v4.9h-13v8.2h10.5v4.9h-10.5v8.4h13.7v4.9H235V13.8z M245.7,5.8h5.8l-4.6,6h-4.5L245.7,5.8z"/>
</g>
<g>
	<path class="st1" d="M40.4,44.4h4.7V33.9c0-1.3-1.1-2.4-2.4-2.4c-1.3,0-2.4,1.1-2.4,2.4V44.4z"/>
	<path class="st1" d="M30.4,44.4h4.7V33.9c0-1.3-1.1-2.4-2.4-2.4s-2.4,1.1-2.4,2.4V44.4z"/>
	<path class="st1" d="M50.4,44.4h4.7V33.9c0-1.3-1.1-2.4-2.4-2.4c-1.3,0-2.4,1.1-2.4,2.4V44.4z"/>
	<path class="st1" d="M44,6c3.2,0.6,4.3,3.3,4.3,5.3v4h2.9v2.3c7.6,3.6,12.9,11.5,12.9,19.6c0,0.1,0,0.1,0,0.2v7h17.5v-7.1l0,0
		c-0.4-23-16.7-37-38.3-37.3L44,6z"/>
	<path class="st1" d="M44,6c3.2,0.6,4.3,3.3,4.3,5.3v4h2.9v2.3c7.6,3.6,12.9,11.5,12.9,19.6c0,0.1,0,0.1,0,0.2v7h17.5v-7.1l0,0
		c-0.4-23-16.7-37-38.3-37.3L44,6z"/>
	<path class="st1" d="M40.7,11.2v4.2h4.3v-4.2c0-1.2-1-2.1-2.1-2.1C41.6,9.1,40.7,10,40.7,11.2"/>
	<path class="st1" d="M40.7,11.2v4.2h4.3v-4.2c0-1.2-1-2.1-2.1-2.1C41.6,9.1,40.7,10,40.7,11.2"/>
	<path class="st1" d="M46,55.6C28,51,21.2,47,21.2,35.6c0-8.2,5.5-15.3,13.2-18.3v-1.9h2.9v-4c0-2,1.2-4.8,4.5-5.3l0.6-6
		C20.6,0.2,2.1,15.3,3,35.6c1,22.7,25.9,29.1,39.3,31.9c10.6,2.2,36,8.2,42.3,26.1C84.6,93.6,86.9,64,46,55.6"/>
	<path class="st1" d="M46,55.6C28,51,21.2,47,21.2,35.6c0-8.2,5.5-15.3,13.2-18.3v-1.9h2.9v-4c0-2,1.2-4.8,4.5-5.3l0.6-6
		C20.6,0.2,2.1,15.3,3,35.6c1,22.7,25.9,29.1,39.3,31.9c10.6,2.2,36,8.2,42.3,26.1C84.6,93.6,86.9,64,46,55.6"/>
	<path class="st1" d="M40,87.1c18.2,5.6,22.9,12.3,22.9,21.9c0,14.6-11.3,20.6-25.5,20.6c-13.6,0-25.3-6.3-33.1-14.6
		c0,0-2.9,6-2.9,6c5.7,10.8,21.8,20.7,39.8,20.7h0c0,0,0,0,0,0c23,0.2,42.6-10.6,42.6-32.3c0-23.3-25.4-32.4-39.5-35.5
		c-11.1-2.5-39-9.8-44-25.5C0.3,48.5-5.3,75.6,40,87.1"/>
	<path class="st1" d="M40,87.1c18.2,5.6,22.9,12.3,22.9,21.9c0,14.6-11.3,20.6-25.5,20.6c-13.6,0-25.3-6.3-33.1-14.6
		c0,0-2.9,6-2.9,6c5.7,10.8,21.8,20.7,39.8,20.7h0c0,0,0,0,0,0c23,0.2,42.6-10.6,42.6-32.3c0-23.3-25.4-32.4-39.5-35.5
		c-11.1-2.5-39-9.8-44-25.5C0.3,48.5-5.3,75.6,40,87.1"/>
</g>
<g>
	<path class="st1" d="M111.1,81.4c0,0,3.1,2.9,7.2,2.9c2.2,0,4.2-1.1,4.2-3.3c0-4.9-13.5-4.1-13.5-12.5c0-4.6,4.1-8,9.6-8
		c5.7,0,8.6,2.9,8.6,2.9l-2.3,4.1c0,0-2.7-2.4-6.3-2.4c-2.4,0-4.3,1.4-4.3,3.3c0,4.9,13.5,3.7,13.5,12.5c0,4.4-3.5,8.1-9.5,8.1
		c-6.4,0-9.9-3.8-9.9-3.8L111.1,81.4z"/>
	<path class="st1" d="M149.6,84.4c5.3,0,9.5-4.2,9.5-9.9c0-5.4-4.2-9.5-9.5-9.5s-9.5,4-9.5,9.5C140.2,80.2,144.4,84.4,149.6,84.4
		 M149.6,60.4c8.4,0,14.8,6.2,14.8,14c0,8.1-6.4,14.4-14.8,14.4c-8.4,0-14.8-6.3-14.8-14.4C134.8,66.6,141.2,60.4,149.6,60.4"/>
	<path class="st1" d="M182.8,73.8c2.8,0,4.5-1.6,4.5-4.3c0-2.6-1.2-4.3-5.3-4.3h-4v8.6H182.8z M172.9,60.9h9.3
		c3.1,0,4.5,0.2,5.8,0.8c2.9,1.2,4.7,3.9,4.7,7.5c0,3.3-1.8,6.4-4.8,7.5v0.1c0,0,0.4,0.4,1,1.4l5.9,10.3h-5.8l-5.7-10.3h-5v10.3
		h-5.2V60.9z"/>
	<path class="st1" d="M212.8,84.2c2.7,0,4.2-1.7,4.2-4c0-2.3-1.5-4-4.2-4h-5.6v8H212.8z M212.3,72.2c2.3,0,3.6-1.6,3.6-3.5
		c0-2-1.2-3.4-3.6-3.4h-5v6.9H212.3z M202,60.9h10.3c5.2,0,8.9,2.6,8.9,7.1c0,2.6-1.3,4.8-3.5,5.9V74c3.2,0.9,4.6,3.7,4.6,6.5
		c0,5.5-4.6,8-9.9,8H202V60.9z"/>
	<path class="st1" d="M243.9,84.4c5.3,0,9.5-4.2,9.5-9.9c0-5.4-4.2-9.5-9.5-9.5c-5.3,0-9.5,4-9.5,9.5
		C234.4,80.2,238.6,84.4,243.9,84.4 M243.9,60.4c8.4,0,14.8,6.2,14.8,14c0,8.1-6.4,14.4-14.8,14.4c-8.4,0-14.8-6.3-14.8-14.4
		C229.1,66.6,235.4,60.4,243.9,60.4"/>
	<path class="st1" d="M267.6,60.9h5.2l10.9,15.9c1.1,1.6,2.4,4.3,2.4,4.3h0.1c0,0-0.3-2.6-0.3-4.3V60.9h5.2v27.6h-5.2L275,72.6
		c-1.1-1.6-2.4-4.3-2.4-4.3h-0.1c0,0,0.3,2.6,0.3,4.3v15.9h-5.2V60.9z"/>
	<path class="st1" d="M301.4,60.9h5.2l10.9,15.9c1.1,1.6,2.4,4.3,2.4,4.3h0.1c0,0-0.3-2.6-0.3-4.3V60.9h5.2v27.6h-5.2l-10.9-15.9
		c-1.1-1.6-2.4-4.3-2.4-4.3h-0.1c0,0,0.3,2.6,0.3,4.3v15.9h-5.2V60.9z"/>
	<polygon class="st1" points="335.3,60.9 335.3,88.5 353.1,88.5 353.1,84.2 340.5,84.2 340.5,76.7 350.1,76.7 350.1,72.4 
		340.5,72.4 340.5,65.2 352.4,65.2 352.4,60.9 	"/>
	<path class="st1" d="M108.7,100.5h5.3v17.8c0,3.7,2.5,5.8,6.4,5.8s6.4-2.1,6.4-5.9v-17.8h5.3v17.8c0,6.2-4.7,10.5-11.7,10.5
		c-7,0-11.7-4.2-11.7-10.5V100.5z"/>
	<path class="st1" d="M140.8,100.8h5.2l10.9,15.9c1.1,1.6,2.4,4.3,2.4,4.3h0.1c0,0-0.3-2.6-0.3-4.3v-15.9h5.2v27.6h-5.2l-10.9-15.9
		c-1.1-1.6-2.4-4.3-2.4-4.3h-0.1c0,0,0.3,2.6,0.3,4.3v15.9h-5.2V100.8z"/>
	<rect x="173.5" y="100.8" class="st1" width="5.2" height="27.6"/>
	<path class="st1" d="M184.4,100.8h5.6l6.3,18c0.6,1.6,1,4,1,4h0.1c0,0,0.5-2.4,1.1-4l6.3-18h5.6L200,128.4h-5.2L184.4,100.8z"/>
	<polygon class="st1" points="216.1,100.8 233.3,100.8 233.3,105.2 221.3,105.2 221.3,112.4 231,112.4 231,116.7 221.3,116.7 
		221.3,124.1 233.9,124.1 233.9,128.4 216.1,128.4 	"/>
	<path class="st1" d="M251.3,113.8c2.8,0,4.5-1.6,4.5-4.3c0-2.6-1.2-4.3-5.3-4.3h-4v8.6H251.3z M241.4,100.8h9.3
		c3.1,0,4.5,0.2,5.8,0.8c2.9,1.2,4.7,3.9,4.7,7.5c0,3.3-1.8,6.4-4.8,7.5v0.1c0,0,0.4,0.4,1,1.4l5.9,10.3h-5.8l-5.7-10.3h-5v10.3
		h-5.2V100.8z"/>
	<path class="st1" d="M270.6,121.3c0,0,3.1,2.9,7.2,2.9c2.2,0,4.2-1.1,4.2-3.3c0-4.9-13.5-4.1-13.5-12.5c0-4.6,4.1-8,9.6-8
		c5.7,0,8.6,2.9,8.6,2.9l-2.3,4.1c0,0-2.8-2.4-6.3-2.4c-2.4,0-4.3,1.4-4.3,3.3c0,4.9,13.5,3.7,13.5,12.5c0,4.4-3.5,8.1-9.5,8.1
		c-6.4,0-9.9-3.8-9.9-3.8L270.6,121.3z"/>
	<rect x="294.4" y="100.8" class="st1" width="5.2" height="27.6"/>
	<polygon class="st1" points="314.8,105.2 305.4,105.2 305.4,100.8 329.5,100.8 329.5,105.2 320,105.2 320,128.4 314.8,128.4 	"/>
	<path class="st1" d="M335.3,100.8v27.6h17.8v-4.3h-12.6v-7.4h9.7v-4.3h-9.7v-7.2h12v-4.3H335.3z M345.1,93.7l-3.1,5.3h4.1l4.2-5.3
		H345.1z"/>
</g>
</svg>
