<?xml version="1.0" encoding="UTF-8"?>
<svg xmlns="http://www.w3.org/2000/svg" id="Calque_2" data-name="Calque 2" viewBox="0 0 1036.99 221.13">
  <defs>
    <style>
      .cls-1 {
        fill: #004180;
      }

      .cls-2 {
        fill: #9e215f;
      }
    </style>
  </defs>
  <g id="Calque_1-2" data-name="Calque 1">
    <g>
      <path class="cls-1" d="M123.17,35.7l-42.68,160.24H42.44L0,35.7H37.56l24.88,108.78,24.88-108.78h35.85Z"></path>
      <path class="cls-1" d="M141.21,35.7h61.22c29.75,0,50.73,16.83,50.73,42.44,0,17.32-8.05,29.03-22.68,35.12v.24c17.07,6.1,26.59,19.27,26.59,37.8,0,27.56-20.98,44.63-50.73,44.63h-65.12V35.7Zm35.12,28.54v35.85h21.22c11.95,0,19.51-6.34,19.51-18.29s-7.56-17.56-19.51-17.56h-21.22Zm0,64.88v38.29h23.66c13.41,0,20.73-7.32,20.73-19.27,0-11.22-7.8-19.02-20.73-19.02h-23.66Z"></path>
      <path class="cls-1" d="M393.64,195.94h-35.36v-65.36h-42.93v65.36h-35.37V35.7h35.37v63.17h42.93V35.7h35.36V195.94Z"></path>
      <path class="cls-1" d="M460.23,195.94h-35.37V35.7h35.37V195.94Z"></path>
    </g>
    <g>
      <path class="cls-2" d="M531.55,60.58c-.45,1.56-1.76,2.63-3.41,2.63s-2.91-1.07-3.36-2.63l-6.19-21.21c-.12-.41-.16-.74-.16-.9,0-1.48,1.15-2.63,2.58-2.63,1.23,0,2.26,.82,2.5,1.97l4.8,17.84,4.8-17.89c.29-1.11,1.19-1.93,2.34-1.93,1.39,0,2.5,1.11,2.5,2.5,0,.16-.04,.41-.12,.74l-6.28,21.5Z"></path>
      <path class="cls-2" d="M551.32,61.11c-1.03,1.39-2.71,2.3-4.88,2.3-4.51,0-6.85-3.24-6.85-7.79v-5.33c0-4.55,2.34-7.79,6.85-7.79,2.17,0,3.86,.94,4.88,2.3l.12-.53c.25-1.07,1.23-1.56,2.22-1.56,1.39,0,2.26,.98,2.26,2.42v15.71c0,1.44-.86,2.38-2.26,2.38-.98,0-1.97-.45-2.22-1.56l-.12-.53Zm-.33-5.54v-5.21c0-2.05-1.27-3.57-3.32-3.57s-3.12,1.48-3.12,3.49v5.37c0,1.97,1.07,3.45,3.12,3.45s3.32-1.52,3.32-3.53Z"></path>
      <path class="cls-2" d="M565.11,54.26c-2.63-.82-4.76-2.54-4.76-5.78s2.83-5.99,7.38-5.99c3.49,0,5.95,1.27,7.1,3.4,.78,1.44,0,3.32-1.76,3.32-1.07,0-1.64-.49-2.26-1.39-.74-1.07-1.48-1.68-3.04-1.68s-2.87,.74-2.87,1.97c0,.78,.33,1.44,1.97,1.93l2.87,.86c2.99,.9,5.66,2.34,5.66,6.11s-2.95,6.4-7.79,6.4c-3.86,0-6.73-1.6-7.59-4.23-.45-1.35,.41-2.87,2.01-2.87,.9,0,1.44,.37,2.01,1.35s1.44,2.05,3.53,2.05,3.2-.82,3.2-2.22c0-1.07-.62-1.68-2.09-2.13l-3.57-1.11Z"></path>
      <path class="cls-2" d="M594.69,58.07c-.86,3.32-3.73,5.33-7.67,5.33-5,0-8.25-3.12-8.25-8.08v-4.76c0-4.92,3.16-8.08,8.25-8.08,3.69,0,6.6,2.01,7.55,4.8,.49,1.48-.29,3.2-2.13,3.2-1.19,0-1.8-.53-2.3-1.56-.74-1.52-1.64-2.26-3.12-2.26-2.22,0-3.28,1.52-3.28,3.57v5.46c0,2.05,1.07,3.53,3.36,3.53,1.72,0,2.67-.9,3.2-2.5,.41-1.23,1.19-1.64,2.22-1.64,1.56,0,2.58,1.44,2.17,2.99Z"></path>
      <path class="cls-2" d="M610.24,61.07c-1.02,1.39-2.79,2.34-5,2.34-4.39,0-6.48-2.95-6.48-7.14v-11.12c0-1.48,.98-2.46,2.46-2.46s2.5,.98,2.5,2.46v10.83c0,1.8,.98,3.12,2.91,3.12,2.05,0,3.32-1.52,3.32-3.53v-10.42c0-1.48,.98-2.46,2.42-2.46s2.5,.98,2.5,2.46v15.67c0,1.44-.86,2.38-2.3,2.38-.94,0-1.93-.57-2.17-1.52l-.16-.62Z"></path>
      <path class="cls-2" d="M624.88,37.44v23.34c0,1.44-1.03,2.42-2.46,2.42s-2.46-.98-2.46-2.42v-23.34c0-1.44,1.03-2.42,2.46-2.42s2.46,.98,2.46,2.42Z"></path>
      <path class="cls-2" d="M641.09,61.11c-1.02,1.39-2.71,2.3-4.88,2.3-4.51,0-6.85-3.24-6.85-7.79v-5.33c0-4.55,2.34-7.79,6.85-7.79,2.17,0,3.86,.94,4.88,2.3l.12-.53c.25-1.07,1.23-1.56,2.22-1.56,1.39,0,2.26,.98,2.26,2.42v15.71c0,1.44-.86,2.38-2.26,2.38-.98,0-1.97-.45-2.22-1.56l-.12-.53Zm-.33-5.54v-5.21c0-2.05-1.27-3.57-3.32-3.57s-3.12,1.48-3.12,3.49v5.37c0,1.97,1.07,3.45,3.12,3.45s3.32-1.52,3.32-3.53Z"></path>
      <path class="cls-2" d="M655.4,45.19c.94-1.52,2.34-2.54,3.9-2.54,1.23,0,2.22,.9,2.22,2.17,0,1.39-.94,2.13-2.22,2.3-1.97,.25-3.61,1.23-3.61,3.61v10.05c0,1.44-.98,2.42-2.46,2.42s-2.5-.98-2.5-2.42v-15.67c0-1.44,.86-2.42,2.3-2.42,.94,0,1.93,.37,2.17,1.56l.2,.94Z"></path>
      <path class="cls-2" d="M520.35,82.99c0-1.52,.98-2.5,2.5-2.5h7.3c4.96,0,8.45,2.79,8.45,7.1,0,2.91-1.39,4.92-3.9,5.95v.04c2.91,.98,4.55,3.2,4.55,6.4,0,4.59-3.49,7.47-8.41,7.47h-8c-1.52,0-2.5-.98-2.5-2.5v-21.95Zm5.09,1.64v6.97h4.1c2.38,0,3.86-1.27,3.86-3.57,0-2.17-1.52-3.4-3.9-3.4h-4.06Zm0,11.2v7.47h4.55c2.54,0,4.02-1.44,4.02-3.73s-1.52-3.73-3.98-3.73h-4.59Z"></path>
      <path class="cls-2" d="M548.04,89.64c.94-1.52,2.34-2.54,3.9-2.54,1.23,0,2.22,.9,2.22,2.17,0,1.39-.94,2.13-2.22,2.3-1.97,.25-3.61,1.23-3.61,3.61v10.05c0,1.44-.98,2.42-2.46,2.42s-2.5-.98-2.5-2.42v-15.67c0-1.44,.86-2.42,2.3-2.42,.94,0,1.93,.37,2.17,1.56l.21,.94Z"></path>
      <path class="cls-2" d="M568.19,105.55c-1.03,1.39-2.71,2.3-4.88,2.3-4.51,0-6.85-3.24-6.85-7.79v-5.33c0-4.55,2.34-7.79,6.85-7.79,2.17,0,3.86,.94,4.88,2.3l.12-.53c.25-1.07,1.23-1.56,2.22-1.56,1.39,0,2.26,.98,2.26,2.42v15.71c0,1.44-.86,2.38-2.26,2.38-.98,0-1.97-.45-2.22-1.56l-.12-.53Zm-.33-5.54v-5.21c0-2.05-1.27-3.57-3.32-3.57s-3.12,1.48-3.12,3.49v5.37c0,1.97,1.07,3.45,3.12,3.45s3.32-1.52,3.32-3.53Z"></path>
      <path class="cls-2" d="M580.33,79.14c1.56,0,2.79,1.23,2.79,2.79s-1.23,2.79-2.79,2.79-2.83-1.23-2.83-2.79,1.23-2.79,2.83-2.79Zm2.46,10.46v15.63c0,1.44-1.03,2.42-2.46,2.42s-2.5-.98-2.5-2.42v-15.63c0-1.48,1.03-2.46,2.5-2.46s2.46,.98,2.46,2.46Z"></path>
      <path class="cls-2" d="M592.39,89.31c1.11-1.44,2.83-2.38,5.09-2.38,4.51,0,6.65,3.12,6.65,7.51v10.79c0,1.44-1.03,2.42-2.46,2.42s-2.46-.98-2.46-2.42v-10.5c0-2.01-1.07-3.49-3.12-3.49s-3.32,1.52-3.32,3.57v10.42c0,1.44-1.03,2.42-2.46,2.42-1.52,0-2.5-.98-2.5-2.42v-15.67c0-1.44,.86-2.42,2.3-2.42,.98,0,1.97,.49,2.17,1.56l.12,.62Z"></path>
      <path class="cls-2" d="M636.16,105.14c0,1.52-1.07,2.5-2.58,2.5s-2.54-.98-2.54-2.5v-9.11h-8.33v9.11c0,1.52-1.11,2.5-2.63,2.5s-2.5-.98-2.5-2.5v-22.36c0-1.52,1.03-2.5,2.54-2.5s2.58,.98,2.58,2.5v8.66h8.33v-8.66c0-1.52,1.03-2.5,2.54-2.5s2.58,.98,2.58,2.5v22.36Z"></path>
      <path class="cls-2" d="M656.51,103.3c-.82,2.87-3.73,4.55-7.34,4.55-4.92,0-8.2-3.12-8.2-8v-4.84c0-4.92,3.28-8.08,8.12-8.08s7.84,3.16,7.84,8.08v.86c0,1.56-.98,2.46-2.42,2.46h-8.7v2.05c0,2.01,1.27,3.49,3.45,3.49,1.85,0,2.71-1.07,3.32-2.17,.53-.94,.98-1.39,2.01-1.39,1.44,0,2.42,1.31,1.93,2.99Zm-10.71-8.37h6.44v-.49c0-2.05-1.19-3.57-3.16-3.57-2.09,0-3.28,1.52-3.28,3.57v.49Z"></path>
      <path class="cls-2" d="M672.27,105.55c-1.03,1.39-2.71,2.3-4.88,2.3-4.51,0-6.85-3.24-6.85-7.79v-5.33c0-4.55,2.34-7.79,6.85-7.79,2.17,0,3.86,.94,4.88,2.3l.12-.53c.25-1.07,1.23-1.56,2.22-1.56,1.39,0,2.26,.98,2.26,2.42v15.71c0,1.44-.86,2.38-2.26,2.38-.98,0-1.97-.45-2.22-1.56l-.12-.53Zm-.33-5.54v-5.21c0-2.05-1.27-3.57-3.32-3.57s-3.12,1.48-3.12,3.49v5.37c0,1.97,1.07,3.45,3.12,3.45s3.32-1.52,3.32-3.53Z"></path>
      <path class="cls-2" d="M686.91,81.88v23.34c0,1.44-1.03,2.42-2.46,2.42s-2.46-.98-2.46-2.42v-23.34c0-1.44,1.03-2.42,2.46-2.42s2.46,.98,2.46,2.42Z"></path>
      <path class="cls-2" d="M692.04,87.54h1.76v-3.28c0-1.44,.98-2.42,2.42-2.42s2.5,.98,2.5,2.42v3.28h1.8c1.23,0,2.05,.82,2.05,2.05s-.82,2.09-2.05,2.09h-1.8v13.54c0,1.44-1.07,2.42-2.5,2.42s-2.42-.98-2.42-2.42v-13.54h-1.76c-1.23,0-2.05-.82-2.05-2.05s.82-2.09,2.05-2.09Z"></path>
      <path class="cls-2" d="M705.58,105.23v-23.34c0-1.44,1.03-2.42,2.5-2.42s2.46,.98,2.46,2.42v7.06c1.07-1.19,2.67-2.01,4.72-2.01,4.51,0,6.65,3.12,6.65,7.51v10.79c0,1.44-1.03,2.42-2.46,2.42s-2.46-.98-2.46-2.42v-10.5c0-2.01-1.07-3.49-3.12-3.49s-3.32,1.52-3.32,3.57v10.42c0,1.44-1.03,2.42-2.46,2.42-1.52,0-2.5-.98-2.5-2.42Z"></path>
      <path class="cls-2" d="M525.48,149.59c0,1.52-1.07,2.5-2.58,2.5s-2.54-.98-2.54-2.5v-22.36c0-1.52,1.03-2.5,2.54-2.5s2.58,.98,2.58,2.5v22.36Z"></path>
      <path class="cls-2" d="M535.57,133.75c1.11-1.44,2.83-2.38,5.09-2.38,4.51,0,6.65,3.12,6.65,7.51v10.79c0,1.44-1.03,2.42-2.46,2.42s-2.46-.98-2.46-2.42v-10.5c0-2.01-1.07-3.49-3.12-3.49s-3.32,1.52-3.32,3.57v10.42c0,1.44-1.03,2.42-2.46,2.42-1.52,0-2.5-.98-2.5-2.42v-15.67c0-1.44,.86-2.42,2.3-2.42,.98,0,1.97,.49,2.17,1.56l.12,.62Z"></path>
      <path class="cls-2" d="M556.33,143.15c-2.63-.82-4.76-2.54-4.76-5.78s2.83-5.99,7.38-5.99c3.49,0,5.95,1.27,7.1,3.4,.78,1.44,0,3.32-1.76,3.32-1.07,0-1.64-.49-2.26-1.39-.74-1.07-1.48-1.68-3.04-1.68s-2.87,.74-2.87,1.97c0,.78,.33,1.44,1.97,1.93l2.87,.86c2.99,.9,5.66,2.34,5.66,6.11s-2.95,6.4-7.79,6.4c-3.86,0-6.73-1.6-7.59-4.23-.45-1.35,.41-2.87,2.01-2.87,.9,0,1.44,.37,2.01,1.35s1.44,2.05,3.53,2.05,3.2-.82,3.2-2.22c0-1.07-.62-1.68-2.09-2.13l-3.57-1.11Z"></path>
      <path class="cls-2" d="M570.73,131.99h1.76v-3.28c0-1.44,.98-2.42,2.42-2.42s2.5,.98,2.5,2.42v3.28h1.8c1.23,0,2.05,.82,2.05,2.05s-.82,2.09-2.05,2.09h-1.8v13.54c0,1.44-1.07,2.42-2.5,2.42s-2.42-.98-2.42-2.42v-13.54h-1.76c-1.23,0-2.05-.82-2.05-2.05s.82-2.09,2.05-2.09Z"></path>
      <path class="cls-2" d="M586.77,123.58c1.56,0,2.79,1.23,2.79,2.79s-1.23,2.79-2.79,2.79-2.83-1.23-2.83-2.79,1.23-2.79,2.83-2.79Zm2.46,10.46v15.63c0,1.44-1.03,2.42-2.46,2.42s-2.5-.98-2.5-2.42v-15.63c0-1.48,1.03-2.46,2.5-2.46s2.46,.98,2.46,2.46Z"></path>
      <path class="cls-2" d="M594.28,131.99h1.76v-3.28c0-1.44,.98-2.42,2.42-2.42s2.5,.98,2.5,2.42v3.28h1.8c1.23,0,2.05,.82,2.05,2.05s-.82,2.09-2.05,2.09h-1.8v13.54c0,1.44-1.07,2.42-2.5,2.42s-2.42-.98-2.42-2.42v-13.54h-1.76c-1.23,0-2.05-.82-2.05-2.05s.82-2.09,2.05-2.09Z"></path>
      <path class="cls-2" d="M619.14,149.96c-1.03,1.39-2.79,2.34-5,2.34-4.39,0-6.48-2.95-6.48-7.14v-11.12c0-1.48,.98-2.46,2.46-2.46s2.5,.98,2.5,2.46v10.83c0,1.8,.98,3.12,2.91,3.12,2.05,0,3.32-1.52,3.32-3.53v-10.42c0-1.48,.98-2.46,2.42-2.46s2.5,.98,2.5,2.46v15.67c0,1.44-.86,2.38-2.3,2.38-.94,0-1.93-.57-2.17-1.52l-.16-.62Z"></path>
      <path class="cls-2" d="M628.82,131.99h1.76v-3.28c0-1.44,.98-2.42,2.42-2.42s2.5,.98,2.5,2.42v3.28h1.8c1.23,0,2.05,.82,2.05,2.05s-.82,2.09-2.05,2.09h-1.8v13.54c0,1.44-1.07,2.42-2.5,2.42s-2.42-.98-2.42-2.42v-13.54h-1.76c-1.23,0-2.05-.82-2.05-2.05s.82-2.09,2.05-2.09Z"></path>
      <path class="cls-2" d="M657.17,147.74c-.82,2.87-3.73,4.55-7.34,4.55-4.92,0-8.2-3.12-8.2-8v-4.84c0-4.92,3.28-8.08,8.12-8.08s7.84,3.16,7.84,8.08v.86c0,1.56-.98,2.46-2.42,2.46h-8.7v2.05c0,2.01,1.27,3.49,3.45,3.49,1.85,0,2.71-1.07,3.32-2.17,.53-.94,.98-1.39,2.01-1.39,1.44,0,2.42,1.31,1.93,2.99Zm-10.71-8.37h6.44v-.49c0-2.05-1.19-3.57-3.16-3.57-2.09,0-3.28,1.52-3.28,3.57v.49Z"></path>
    </g>
    <g>
      <g>
        <path class="cls-2" d="M772.19,88.64c3.91,0,7.08-3.17,7.08-7.08s-3.17-7.09-7.08-7.09-7.08,3.17-7.08,7.09,3.17,7.08,7.08,7.08Z"></path>
        <circle class="cls-2" cx="772.19" cy="63.86" r="3.54"></circle>
        <circle class="cls-2" cx="761.81" cy="67.22" r="3.54"></circle>
        <path class="cls-2" d="M754.29,79.41c1.86,.6,3.86-.41,4.46-2.27,.6-1.86-.41-3.86-2.27-4.46-1.86-.6-3.86,.41-4.46,2.27-.6,1.86,.41,3.86,2.27,4.46Z"></path>
        <path class="cls-2" d="M758.74,85.86c-.6-1.86-2.6-2.88-4.46-2.27-1.86,.6-2.88,2.6-2.27,4.46,.6,1.86,2.6,2.88,4.46,2.27,1.86-.6,2.88-2.6,2.27-4.46Z"></path>
        <path class="cls-2" d="M763.86,92.92c-1.58-1.15-3.8-.8-4.95,.78-1.15,1.58-.8,3.8,.78,4.95s3.8,.8,4.95-.78,.8-3.8-.78-4.95Z"></path>
        <circle class="cls-2" cx="772.15" cy="99.17" r="3.54" transform="translate(-5.92 124.97) rotate(-9.22)"></circle>
        <circle class="cls-2" cx="782.54" cy="95.81" r="3.54" transform="translate(336.2 745.68) rotate(-62.5)"></circle>
        <path class="cls-2" d="M792.33,88.09c.6-1.86-.41-3.86-2.27-4.46-1.86-.6-3.86,.41-4.46,2.27-.6,1.86,.41,3.86,2.27,4.46,1.86,.6,3.86-.41,4.46-2.27Z"></path>
        <path class="cls-2" d="M785.6,77.17c.6,1.86,2.6,2.88,4.46,2.27,1.86-.6,2.88-2.6,2.27-4.46-.6-1.86-2.6-2.88-4.46-2.27-1.86,.6-2.88,2.6-2.27,4.46Z"></path>
        <circle class="cls-2" cx="782.57" cy="67.24" r="3.54"></circle>
        <path class="cls-2" d="M784.63,142.26c-3.91,0-7.08,3.17-7.08,7.09s3.17,7.08,7.08,7.08,7.08-3.17,7.08-7.08-3.17-7.09-7.08-7.09Z"></path>
        <circle class="cls-2" cx="784.63" cy="131.64" r="3.54"></circle>
        <circle class="cls-2" cx="774.25" cy="135" r="3.54"></circle>
        <path class="cls-2" d="M764.46,142.73c-.6,1.86,.41,3.86,2.27,4.46,1.86,.6,3.86-.41,4.46-2.27,.6-1.86-.41-3.86-2.27-4.46-1.86-.6-3.86,.41-4.46,2.27Z"></path>
        <path class="cls-2" d="M771.18,153.64c-.6-1.86-2.6-2.88-4.46-2.27-1.86,.6-2.88,2.6-2.27,4.46,.6,1.86,2.6,2.88,4.46,2.27,1.86-.6,2.88-2.6,2.27-4.46Z"></path>
        <circle class="cls-2" cx="774.22" cy="163.57" r="3.54"></circle>
        <circle class="cls-2" cx="784.59" cy="166.95" r="3.54"></circle>
        <circle class="cls-2" cx="794.97" cy="163.59" r="3.54"></circle>
        <path class="cls-2" d="M802.49,151.4c-1.86-.6-3.86,.41-4.46,2.27-.6,1.86,.41,3.86,2.27,4.46,1.86,.6,3.86-.41,4.46-2.27,.6-1.86-.41-3.86-2.27-4.46Z"></path>
        <path class="cls-2" d="M800.31,140.49c-1.86,.6-2.88,2.6-2.27,4.46,.6,1.86,2.6,2.88,4.46,2.27,1.86-.6,2.88-2.6,2.27-4.46-.6-1.86-2.6-2.88-4.46-2.27Z"></path>
        <path class="cls-2" d="M792.92,137.89c1.58,1.15,3.8,.8,4.95-.78,1.15-1.58,.8-3.8-.78-4.95-1.58-1.15-3.8-.8-4.95,.78s-.8,3.8,.78,4.95Z"></path>
        <path class="cls-2" d="M858.01,109.3c-3.91,0-7.08,3.17-7.08,7.09s3.17,7.08,7.08,7.08,7.08-3.17,7.08-7.08-3.17-7.09-7.08-7.09Z"></path>
        <circle class="cls-2" cx="858.01" cy="98.68" r="3.54"></circle>
        <path class="cls-2" d="M849.71,104.91c1.58-1.15,1.93-3.36,.78-4.95-1.15-1.58-3.36-1.93-4.95-.78s-1.93,3.36-.78,4.95,3.36,1.93,4.95,.78Z"></path>
        <path class="cls-2" d="M840.11,114.23c1.86,.6,3.86-.41,4.46-2.27,.6-1.86-.41-3.86-2.27-4.46-1.86-.6-3.86,.41-4.46,2.27-.6,1.86,.41,3.86,2.27,4.46Z"></path>
        <path class="cls-2" d="M844.56,120.68c-.6-1.86-2.6-2.88-4.46-2.27-1.86,.6-2.88,2.6-2.27,4.46,.6,1.86,2.6,2.88,4.46,2.27,1.86-.6,2.88-2.6,2.27-4.46Z"></path>
        <circle class="cls-2" cx="847.59" cy="130.61" r="3.54"></circle>
        <circle class="cls-2" cx="857.97" cy="134" r="3.54" transform="translate(405.84 875.37) rotate(-67.5)"></circle>
        <circle class="cls-2" cx="868.35" cy="130.63" r="3.54"></circle>
        <path class="cls-2" d="M875.87,118.45c-1.86-.6-3.86,.41-4.46,2.27-.6,1.86,.41,3.86,2.27,4.46,1.86,.6,3.86-.41,4.46-2.27,.6-1.86-.41-3.86-2.27-4.46Z"></path>
        <path class="cls-2" d="M873.69,107.53c-1.86,.6-2.88,2.6-2.27,4.46,.6,1.86,2.6,2.88,4.46,2.27,1.86-.6,2.88-2.6,2.27-4.46-.6-1.86-2.6-2.88-4.46-2.27Z"></path>
        <circle class="cls-2" cx="868.38" cy="102.07" r="3.54"></circle>
        <path class="cls-2" d="M918.95,145.78c-3.91,0-7.08,3.17-7.08,7.09s3.17,7.08,7.08,7.08,7.08-3.17,7.08-7.08-3.17-7.09-7.08-7.09Z"></path>
        <circle class="cls-2" cx="918.95" cy="135.16" r="3.54" transform="translate(173.58 689.38) rotate(-45)"></circle>
        <path class="cls-2" d="M910.64,141.39c1.58-1.15,1.93-3.36,.78-4.95-1.15-1.58-3.36-1.93-4.95-.78-1.58,1.15-1.93,3.36-.78,4.95,1.15,1.58,3.36,1.93,4.95,.78Z"></path>
        <path class="cls-2" d="M898.77,146.25c-.6,1.86,.41,3.86,2.27,4.46,1.86,.6,3.86-.41,4.46-2.27,.6-1.86-.41-3.86-2.27-4.46-1.86-.6-3.86,.41-4.46,2.27Z"></path>
        <path class="cls-2" d="M905.49,157.16c-.6-1.86-2.6-2.88-4.46-2.27-1.86,.6-2.88,2.6-2.27,4.46,.6,1.86,2.6,2.88,4.46,2.27s2.88-2.6,2.27-4.46Z"></path>
        <circle class="cls-2" cx="908.53" cy="167.09" r="3.54" transform="translate(310.55 871.2) rotate(-60.08)"></circle>
        <circle class="cls-2" cx="918.91" cy="170.48" r="3.54" transform="translate(-14.59 215.68) rotate(-13.28)"></circle>
        <path class="cls-2" d="M927.21,164.25c-1.58,1.15-1.93,3.36-.78,4.95,1.15,1.58,3.36,1.93,4.95,.78,1.58-1.15,1.93-3.36,.78-4.95-1.15-1.58-3.36-1.93-4.95-.78Z"></path>
        <path class="cls-2" d="M936.81,154.93c-1.86-.6-3.86,.41-4.46,2.27-.6,1.86,.41,3.86,2.27,4.46,1.86,.6,3.86-.41,4.46-2.27,.6-1.86-.41-3.86-2.27-4.46Z"></path>
        <path class="cls-2" d="M934.63,144.01c-1.86,.6-2.88,2.6-2.27,4.46,.6,1.86,2.6,2.88,4.46,2.27,1.86-.6,2.88-2.6,2.27-4.46-.6-1.86-2.6-2.88-4.46-2.27Z"></path>
        <path class="cls-2" d="M927.24,141.41c1.58,1.15,3.8,.8,4.95-.78s.8-3.8-.78-4.95-3.8-.8-4.95,.78c-1.15,1.58-.8,3.8,.78,4.95Z"></path>
        <path class="cls-2" d="M823.6,32.82c-3.91,0-7.08,3.17-7.08,7.09s3.17,7.08,7.08,7.08,7.08-3.17,7.08-7.08-3.17-7.09-7.08-7.09Z"></path>
        <circle class="cls-2" cx="823.6" cy="22.2" r="3.54" transform="translate(487.92 774.61) rotate(-67.5)"></circle>
        <circle class="cls-2" cx="813.22" cy="25.56" r="3.54"></circle>
        <path class="cls-2" d="M805.7,37.75c1.86,.6,3.86-.41,4.46-2.27,.6-1.86-.41-3.86-2.27-4.46-1.86-.6-3.86,.41-4.46,2.27-.6,1.86,.41,3.86,2.27,4.46Z"></path>
        <path class="cls-2" d="M810.15,44.2c-.6-1.86-2.6-2.88-4.46-2.27-1.86,.6-2.88,2.6-2.27,4.46,.6,1.86,2.6,2.88,4.46,2.27,1.86-.6,2.88-2.6,2.27-4.46Z"></path>
        <circle class="cls-2" cx="813.18" cy="54.13" r="3.54"></circle>
        <circle class="cls-2" cx="823.56" cy="57.51" r="3.54"></circle>
        <circle class="cls-2" cx="833.94" cy="54.15" r="3.54" transform="translate(84.13 423.17) rotate(-29.92)"></circle>
        <path class="cls-2" d="M843.73,46.42c.6-1.86-.41-3.86-2.27-4.46-1.86-.6-3.86,.41-4.46,2.27-.6,1.86,.41,3.86,2.27,4.46,1.86,.6,3.86-.41,4.46-2.27Z"></path>
        <path class="cls-2" d="M837.01,35.51c.6,1.86,2.6,2.88,4.46,2.27,1.86-.6,2.88-2.6,2.27-4.46-.6-1.86-2.6-2.88-4.46-2.27-1.86,.6-2.88,2.6-2.27,4.46Z"></path>
        <circle class="cls-2" cx="833.97" cy="25.58" r="3.54" transform="translate(46.93 302.58) rotate(-21.15)"></circle>
        <path class="cls-2" d="M908.13,28.33c3.91,0,7.08-3.17,7.08-7.08s-3.17-7.09-7.08-7.09-7.08,3.17-7.08,7.09,3.17,7.08,7.08,7.08Z"></path>
        <circle class="cls-2" cx="908.13" cy="3.54" r="3.54" transform="translate(557.33 841.19) rotate(-67.5)"></circle>
        <circle class="cls-2" cx="897.75" cy="6.9" r="3.54"></circle>
        <path class="cls-2" d="M890.23,19.09c1.86,.6,3.86-.41,4.46-2.27,.6-1.86-.41-3.86-2.27-4.46-1.86-.6-3.86,.41-4.46,2.27-.6,1.86,.41,3.86,2.27,4.46Z"></path>
        <path class="cls-2" d="M894.68,25.54c-.6-1.86-2.6-2.88-4.46-2.27-1.86,.6-2.88,2.6-2.27,4.46,.6,1.86,2.6,2.88,4.46,2.27,1.86-.6,2.88-2.6,2.27-4.46Z"></path>
        <circle class="cls-2" cx="897.71" cy="35.47" r="3.54"></circle>
        <circle class="cls-2" cx="908.09" cy="38.86" r="3.54"></circle>
        <circle class="cls-2" cx="918.47" cy="35.5" r="3.54"></circle>
        <path class="cls-2" d="M928.26,27.77c.6-1.86-.41-3.86-2.27-4.46-1.86-.6-3.86,.41-4.46,2.27-.6,1.86,.41,3.86,2.27,4.46,1.86,.6,3.86-.41,4.46-2.27Z"></path>
        <path class="cls-2" d="M921.54,16.86c.6,1.86,2.6,2.88,4.46,2.27,1.86-.6,2.88-2.6,2.27-4.46-.6-1.86-2.6-2.88-4.46-2.27-1.86,.6-2.88,2.6-2.27,4.46Z"></path>
        <circle class="cls-2" cx="918.5" cy="6.93" r="3.54" transform="translate(378.53 749.98) rotate(-54.43)"></circle>
        <path class="cls-2" d="M982.99,36.96c-3.91,0-7.08,3.17-7.08,7.09s3.17,7.08,7.08,7.08,7.08-3.17,7.08-7.08-3.17-7.09-7.08-7.09Z"></path>
        <circle class="cls-2" cx="982.99" cy="26.34" r="3.54" transform="translate(582.48 924.43) rotate(-67.5)"></circle>
        <path class="cls-2" d="M974.69,32.57c1.58-1.15,1.93-3.36,.78-4.95-1.15-1.58-3.36-1.93-4.95-.78s-1.93,3.36-.78,4.95c1.15,1.58,3.36,1.93,4.95,.78Z"></path>
        <path class="cls-2" d="M965.09,41.89c1.86,.6,3.86-.41,4.46-2.27,.6-1.86-.41-3.86-2.27-4.46-1.86-.6-3.86,.41-4.46,2.27-.6,1.86,.41,3.86,2.27,4.46Z"></path>
        <path class="cls-2" d="M969.54,48.34c-.6-1.86-2.6-2.88-4.46-2.27-1.86,.6-2.88,2.6-2.27,4.46,.6,1.86,2.6,2.88,4.46,2.27,1.86-.6,2.88-2.6,2.27-4.46Z"></path>
        <circle class="cls-2" cx="972.58" cy="58.27" r="3.54"></circle>
        <circle class="cls-2" cx="982.95" cy="61.66" r="3.54" transform="translate(244.3 713.11) rotate(-45)"></circle>
        <circle class="cls-2" cx="993.34" cy="58.3" r="3.54"></circle>
        <path class="cls-2" d="M1003.13,50.57c.6-1.86-.41-3.86-2.27-4.46-1.86-.6-3.86,.41-4.46,2.27-.6,1.86,.41,3.86,2.27,4.46,1.86,.6,3.86-.41,4.46-2.27Z"></path>
        <path class="cls-2" d="M996.4,39.66c.6,1.86,2.6,2.88,4.46,2.27,1.86-.6,2.88-2.6,2.27-4.46-.6-1.86-2.6-2.88-4.46-2.27-1.86,.6-2.88,2.6-2.27,4.46Z"></path>
        <circle class="cls-2" cx="993.37" cy="29.73" r="3.54" transform="translate(255.24 695.18) rotate(-43.75)"></circle>
        <path class="cls-2" d="M1016.67,85.16c3.91,0,7.08-3.17,7.08-7.08s-3.17-7.09-7.08-7.09-7.08,3.17-7.08,7.09,3.17,7.08,7.08,7.08Z"></path>
        <circle class="cls-2" cx="1016.67" cy="60.37" r="3.54"></circle>
        <circle class="cls-2" cx="1006.29" cy="63.73" r="3.54"></circle>
        <path class="cls-2" d="M998.77,75.92c1.86,.6,3.86-.41,4.46-2.27,.6-1.86-.41-3.86-2.27-4.46-1.86-.6-3.86,.41-4.46,2.27-.6,1.86,.41,3.86,2.27,4.46Z"></path>
        <path class="cls-2" d="M996.48,84.56c.6,1.86,2.6,2.88,4.46,2.27,1.86-.6,2.88-2.6,2.27-4.46-.6-1.86-2.6-2.88-4.46-2.27-1.86,.6-2.88,2.6-2.27,4.46Z"></path>
        <path class="cls-2" d="M1009.12,94.38c1.15-1.58,.8-3.8-.78-4.95-1.58-1.15-3.8-.8-4.95,.78-1.15,1.58-.8,3.8,.78,4.95,1.58,1.15,3.8,.8,4.95-.78Z"></path>
        <circle class="cls-2" cx="1016.63" cy="95.68" r="3.54" transform="translate(5.21 236.13) rotate(-13.28)"></circle>
        <circle class="cls-2" cx="1027.01" cy="92.32" r="3.54" transform="translate(827.61 1104.01) rotate(-83.99)"></circle>
        <path class="cls-2" d="M1034.53,80.13c-1.86-.6-3.86,.41-4.46,2.27-.6,1.86,.41,3.86,2.27,4.46s3.86-.41,4.46-2.27c.6-1.86-.41-3.86-2.27-4.46Z"></path>
        <path class="cls-2" d="M1030.08,73.68c.6,1.86,2.6,2.88,4.46,2.27,1.86-.6,2.88-2.6,2.27-4.46-.6-1.86-2.6-2.88-4.46-2.27-1.86,.6-2.88,2.6-2.27,4.46Z"></path>
        <circle class="cls-2" cx="1027.05" cy="63.75" r="3.54" transform="translate(141.11 587.21) rotate(-34.13)"></circle>
        <path class="cls-2" d="M1015.22,162.81c-3.91,0-7.08,3.17-7.08,7.09s3.17,7.08,7.08,7.08,7.08-3.17,7.08-7.08-3.17-7.09-7.08-7.09Z"></path>
        <circle class="cls-2" cx="1015.22" cy="152.19" r="3.54" transform="translate(-7.81 237.32) rotate(-13.28)"></circle>
        <circle class="cls-2" cx="1004.84" cy="155.55" r="3.54" transform="translate(56.33 521.93) rotate(-29.92)"></circle>
        <path class="cls-2" d="M995.04,163.28c-.6,1.86,.41,3.86,2.27,4.46,1.86,.6,3.86-.41,4.46-2.27,.6-1.86-.41-3.86-2.27-4.46-1.86-.6-3.86,.41-4.46,2.27Z"></path>
        <path class="cls-2" d="M1001.77,174.19c-.6-1.86-2.6-2.88-4.46-2.27-1.86,.6-2.88,2.6-2.27,4.46,.6,1.86,2.6,2.88,4.46,2.27,1.86-.6,2.88-2.6,2.27-4.46Z"></path>
        <path class="cls-2" d="M1006.89,181.26c-1.58-1.15-3.8-.8-4.95,.78-1.15,1.58-.8,3.8,.78,4.95,1.58,1.15,3.8,.8,4.95-.78s.8-3.8-.78-4.95Z"></path>
        <circle class="cls-2" cx="1015.18" cy="187.51" r="3.54" transform="translate(453.45 1053.66) rotate(-67.5)"></circle>
        <circle class="cls-2" cx="1025.56" cy="184.15" r="3.54" transform="translate(183.35 797.63) rotate(-46.25)"></circle>
        <path class="cls-2" d="M1033.08,171.96c-1.86-.6-3.86,.41-4.46,2.27-.6,1.86,.41,3.86,2.27,4.46,1.86,.6,3.86-.41,4.46-2.27,.6-1.86-.41-3.86-2.27-4.46Z"></path>
        <path class="cls-2" d="M1030.9,161.04c-1.86,.6-2.88,2.6-2.27,4.46,.6,1.86,2.6,2.88,4.46,2.27,1.86-.6,2.88-2.6,2.27-4.46-.6-1.86-2.6-2.88-4.46-2.27Z"></path>
        <circle class="cls-2" cx="1025.59" cy="155.58" r="3.54"></circle>
        <path class="cls-2" d="M943.92,108.28c-3.91,0-7.08,3.17-7.08,7.09s3.17,7.08,7.08,7.08,7.08-3.17,7.08-7.08-3.17-7.09-7.08-7.09Z"></path>
        <circle class="cls-2" cx="943.92" cy="97.66" r="3.54" transform="translate(2.81 219.48) rotate(-13.28)"></circle>
        <path class="cls-2" d="M935.62,103.89c1.58-1.15,1.93-3.36,.78-4.95-1.15-1.58-3.36-1.93-4.95-.78-1.58,1.15-1.93,3.36-.78,4.95,1.15,1.58,3.36,1.93,4.95,.78Z"></path>
        <path class="cls-2" d="M923.74,108.75c-.6,1.86,.41,3.86,2.27,4.46,1.86,.6,3.86-.41,4.46-2.27,.6-1.86-.41-3.86-2.27-4.46-1.86-.6-3.86,.41-4.46,2.27Z"></path>
        <path class="cls-2" d="M928.19,124.12c1.86-.6,2.88-2.6,2.27-4.46-.6-1.86-2.6-2.88-4.46-2.27-1.86,.6-2.88,2.6-2.27,4.46,.6,1.86,2.6,2.88,4.46,2.27Z"></path>
        <path class="cls-2" d="M936.37,131.67c1.15-1.58,.8-3.8-.78-4.95-1.58-1.15-3.8-.8-4.95,.78s-.8,3.8,.78,4.95c1.58,1.15,3.8,.8,4.95-.78Z"></path>
        <circle class="cls-2" cx="943.88" cy="132.97" r="3.54" transform="translate(-5.3 220.42) rotate(-13.28)"></circle>
        <circle class="cls-2" cx="954.26" cy="129.61" r="3.54"></circle>
        <path class="cls-2" d="M961.78,117.42c-1.86-.6-3.86,.41-4.46,2.27-.6,1.86,.41,3.86,2.27,4.46,1.86,.6,3.86-.41,4.46-2.27,.6-1.86-.41-3.86-2.27-4.46Z"></path>
        <path class="cls-2" d="M959.6,106.51c-1.86,.6-2.88,2.6-2.27,4.46,.6,1.86,2.6,2.88,4.46,2.27,1.86-.6,2.88-2.6,2.27-4.46-.6-1.86-2.6-2.88-4.46-2.27Z"></path>
        <circle class="cls-2" cx="954.29" cy="101.04" r="3.54" transform="translate(195.08 687.96) rotate(-43.75)"></circle>
      </g>
      <path class="cls-1" d="M1011.56,164.5c-3.46,.32-20.26,.97-23.34-15.31,4.37-6.76,6.76-14.86,7.15-23.7,17.13-6.42,26.94-26.71,26.63-44.12-.05-3.13-2.61-5.64-5.74-5.64-.03,0-.07,0-.1,0-3.17,.06-5.69,2.67-5.64,5.84,.26,14.53-7.27,26.31-15.88,31.5-.98-6.34-2.87-12.89-5.7-19.48-5.01-11.96-14.84-21.38-27.27-26.76,1.32-6.15,5.73-13.94,19.14-16.73,3.1-.64,5.1-3.68,4.45-6.79-.64-3.1-3.68-5.1-6.79-4.45-14.58,3.03-24.61,11.89-27.76,24.44-2.48-.54-5.02-.94-7.61-1.19-.89-.1-1.77-.18-2.65-.25-15.59-7.69-30.67-20.93-27.22-35.59,.73-3.08-1.18-6.17-4.27-6.9-3.09-.73-6.18,1.19-6.9,4.27-2.44,10.37,.62,20.9,8.86,30.44,2.53,2.92,5.58,5.77,9.02,8.46-3.25,.37-6.46,.82-9.64,1.26-9.59,1.34-18.65,2.6-27.83,1.86h-.19c-19.55-.93-37.56-10.19-52.07-26.79-2.09-2.39-5.71-2.63-8.1-.54-2.39,2.09-2.63,5.71-.54,8.1,10.09,11.54,21.73,19.98,34.41,25.07-4.76,6.16-11.02,10.91-18.02,15.18-9.33,3.66-20.99,5.43-31.32,4.73-8.54-.58-20.4-3.09-28.39-11.77-2.14-2.33-5.77-2.49-8.11-.34-2.33,2.14-2.49,5.78-.34,8.11,8.35,9.08,20.82,14.43,36.06,15.45,.94,.06,1.9,.11,2.85,.14-4.86,3.01-9.5,6.31-13.61,10.18-9.65,9.08-14.98,19.98-16.27,33.32-.31,3.15,2,5.96,5.16,6.27,.19,.02,.38,.03,.56,.03,2.92,0,5.42-2.22,5.71-5.18,2.28-23.43,19.25-32.45,38.91-42.9,14.11-7.5,28.69-15.25,38.03-29.14,.1-.14,.18-.29,.26-.44,4.63,1.08,9.36,1.74,14.18,1.98,6.85,.55,13.57,.12,20.13-.62-6.26,10.14-9.44,21.9-9.12,34.23,.12,4.64,.76,9.21,1.86,13.63-11.36,3.31-24.9-.49-29.93-8.73-1.65-2.71-5.18-3.56-7.89-1.91-2.71,1.65-3.56,5.18-1.91,7.89,4.19,6.87,11.53,11.89,20.66,14.15,3.4,.84,6.93,1.25,10.45,1.25,4.26,0,8.49-.62,12.42-1.82,3.4,7.39,8.23,14.04,14.29,19.44,1.09,.98,2.46,1.46,3.82,1.46,1.58,0,3.15-.65,4.28-1.92,2.11-2.36,1.9-5.99-.46-8.1-9.88-8.82-15.76-21.81-16.12-35.63-.36-13.58,4.5-26.3,13.69-36.05,8.16-1.06,16.04-1.77,24.02-.84h.13c16.76,1.57,30.7,10.96,36.4,24.55,1.09,2.53,2.93,7.32,4.2,13.18-3.24-2.47-6.83-4.35-10.24-4.99-12.23-2.28-21.52,.46-27.45,2.71-2.96,1.13-4.45,4.44-3.32,7.41,1.13,2.96,4.44,4.45,7.41,3.32,4.63-1.76,11.87-3.91,21.26-2.16,4.13,.77,10.72,6.96,12.07,10.58,.27,.71,.67,1.32,1.15,1.84-.73,4.65-2.32,9.28-5.21,13.5-.5,.47-.91,1.03-1.21,1.65-.05,.06-.09,.12-.14,.19l-.04,.05c-4.16,5.33-9.35,10.25-14.85,15.46-6.13,5.81-12.46,11.81-17.5,18.63-7.89,10.02-12.39,21.97-13.39,35.5-.23,3.16,2.14,5.91,5.3,6.15,.14,.01,.29,.02,.43,.02,2.98,0,5.49-2.3,5.72-5.32,.83-11.24,4.54-21.1,11.02-29.31l.12-.15c4.44-6.03,10.42-11.7,16.2-17.18,3.27-3.1,6.6-6.26,9.74-9.55,5.59,11.45,17.33,16.49,29.14,16.49,1.28,0,2.57-.06,3.84-.18,3.16-.29,5.48-3.08,5.19-6.24-.29-3.16-3.08-5.48-6.24-5.19Z"></path>
    </g>
    <g>
      <path class="cls-1" d="M519.46,174.78h8.38c4.07,0,6.95,2.3,6.95,5.81,0,2.37-1.1,3.97-3.11,4.81v.03c2.34,.84,3.64,2.64,3.64,5.18,0,3.77-2.87,6.11-6.95,6.11h-8.92v-21.94Zm4.81,3.91v4.91h2.91c1.64,0,2.67-.87,2.67-2.5s-1.04-2.4-2.67-2.4h-2.91Zm0,8.88v5.24h3.24c1.84,0,2.84-1,2.84-2.64,0-1.54-1.07-2.6-2.84-2.6h-3.24Z"></path>
      <path class="cls-1" d="M557.43,189.61c0,4.58-3.21,7.45-7.95,7.45s-7.95-2.87-7.95-7.45v-7.71c0-4.58,2.74-7.45,7.95-7.45,4.74,0,7.95,2.87,7.95,7.45v7.71Zm-11.05-.1c0,1.97,1.17,3.21,3.11,3.21s3.11-1.24,3.11-3.21v-7.51c0-1.97-1.17-3.21-3.11-3.21s-3.11,1.24-3.11,3.21v7.51Z"></path>
      <path class="cls-1" d="M575.36,196.72l-2.87-7.78h-2.87v7.78h-4.84v-21.94h8.12c4.38,0,7.58,2.77,7.58,6.95,0,2.77-1.24,4.88-3.24,6.08l3.44,8.92h-5.31Zm-5.74-17.7v5.68h2.74c1.97,0,3.17-1.1,3.17-2.87s-1.2-2.81-3.17-2.81h-2.74Z"></path>
      <path class="cls-1" d="M603.48,182.39v6.71c0,4.68-2.94,7.61-8.12,7.61h-7.85v-21.94h7.85c5.18,0,8.12,2.94,8.12,7.61Zm-11.12-3.27v13.26h3.01c2.1,0,3.27-1.24,3.27-3.37v-6.51c0-2.14-1.17-3.37-3.27-3.37h-3.01Z"></path>
      <path class="cls-1" d="M615.63,187.74v4.64h9.18v4.34h-14.03v-21.94h13.69v4.34h-8.85v4.34h7.85v4.27h-7.85Z"></path>
      <path class="cls-1" d="M629.89,196.72l6.35-21.94h5.21l6.31,21.94h-4.98l-.9-3.47h-6.38l-.87,3.47h-4.74Zm6.65-7.58h4.31l-2.17-8.48-2.14,8.48Z"></path>
      <path class="cls-1" d="M668.82,174.78v14.83c0,4.58-3.11,7.45-7.72,7.45s-7.71-2.87-7.71-7.45v-14.83h4.84v14.73c0,1.97,1.07,3.21,2.87,3.21s2.87-1.24,2.87-3.21v-14.73h4.84Z"></path>
      <path class="cls-1" d="M680.21,174.78l3.21,6.18,3.14-6.18h4.88l-5.71,10.25,6.28,11.69h-5.21l-3.87-7.41-3.54,7.41h-4.91l6.05-11.62-5.51-10.32h5.21Z"></path>
    </g>
  </g>
</svg>
